<svg xmlns="http://www.w3.org/2000/svg" xmlns:xlink="http://www.w3.org/1999/xlink" viewBox="0 0 640 400"><linearGradient id="a" gradientTransform="matrix(.9888865 -.14867243 .14867243 .9888865 -31.78 21.76)" gradientUnits="userSpaceOnUse" x1="64.84" x2="188.64" y1="198.14" y2="310.72"><stop offset=".18" stop-color="#b34b79"/><stop offset=".83" stop-color="#ba1689"/></linearGradient><linearGradient id="b" gradientUnits="userSpaceOnUse" x1="579.39" x2="577.08" y1="123.12" y2="139.89"><stop offset=".22" stop-color="#985ef2"/><stop offset=".89" stop-color="#8d5ed6"/></linearGradient><linearGradient id="c" gradientTransform="matrix(.35478063 .93494958 -.93494958 .35478063 495.56 -458.63)" gradientUnits="userSpaceOnUse" x1="653.3" x2="572.31" y1="219.6" y2="120.21"><stop offset=".22" stop-color="#985ef2"/><stop offset=".89" stop-color="#9f6bf2"/></linearGradient><clipPath id="d"><path d="m574.33 146.36c-6.26-2.23-9.73-8.6-7.76-14.22l-3.43 9.76c-2 5.62 1.5 12 7.76 14.22s12.93-.51 14.91-6.13l3.43-9.75c-1.98 5.62-8.65 8.36-14.91 6.12z"/></clipPath><linearGradient id="e" x1="411.62" x2="441.12" xlink:href="#a" y1="362.13" y2="388.96"/><clipPath id="f"><path d="m444.1 131.19c-16.27-1.54-23.59-13.53-27.65-22.36l-3.11-6.75h-74.1l.28 6.88c.75 18.34-9.28 21.48-16.89 22.23l-8.4.83 1.63 7.45 3.29 15c3.13 14.32 10.58 28.6 21.59 41.28a127.63 127.63 0 0 0 41.68 31.25l21.32 10.08 5.79 2.73 4.47-2.73 16.46-10.08c12.5-7.64 21.7-18.46 26.64-31.24s5.47-27 1.71-41.28l-3.95-15-2-7.45z"/></clipPath><linearGradient id="g" x1="187.28" x2="179.36" xlink:href="#c" y1="272.63" y2="330.08"/><linearGradient id="h" gradientUnits="userSpaceOnUse" x1="391.69" x2="464.7" y1="13.78" y2="150.68"><stop offset=".22" stop-color="#b51f97"/><stop offset=".89" stop-color="#bd4290"/></linearGradient><linearGradient id="i" gradientUnits="userSpaceOnUse" x1="161.89" x2="203.82" y1="1.52" y2="80.12"><stop offset=".11" stop-color="#bd4290"/><stop offset=".78" stop-color="#b51f97"/></linearGradient><path d="m310.34 266.98 1.92 7.6h10.27z" fill="#aabef7"/><path d="m509.25 274.58h9.58l-2.59-9.01" fill="#aabef7"/><path d="m401.76 57.9s12.24 4.1 23.13 51.41l13.69-18.39-12.4-33z" fill="#253ccf"/><path d="m451.07 75a99.07 99.07 0 0 0 -5-15.72 16.37 16.37 0 0 0 -15.47-9.6l-18.34.58a34.85 34.85 0 0 0 -8 1.2 15.66 15.66 0 0 0 -8.61 6.15l-.12.18h.82l2.79-1.71 1.28-.6c6.28-2.94 13.88 2.17 18 20.54l13.27 69.4 16.31-8.19 17.35 7.14z" fill="url(#h)" fill-rule="evenodd"/><path d="m410.28 57.76c-1.29-1.33-7.83-7.27-14.72 0z" fill="#80165a" fill-rule="evenodd"/><path d="m202.27 202.32h80.15v17.21h-80.15z" fill="#42437a"/><path d="m202.27 202.32h17.21v17.21h-17.21z" fill="#6169b3"/><path d="m264.65 41.22h-44.62l4.04 161.1h36.54z" fill="#8a275a" style="&#10;    fill: #A32B50;&#10;"/><path d="m221.06 72.88 42.94-.88.29-.35a1.62 1.62 0 0 0 -.09-2.17l-.21-.23-43.09.93a1.7 1.7 0 0 0 -.16 2.32z" fill="#631c41" style="&#10;    fill: #711E38;&#10;"/><path d="m221.43 96.71 41.76 1.68.3-.33a1.67 1.67 0 0 0 .05-2.17l-.2-.25-41.9-1.64a1.73 1.73 0 0 0 -.3 2.3z" fill="#631c41" style="&#10;    fill: #711E38;&#10;"/><path d="m262.7 118.72-40.7-.07a2 2 0 0 1 0-2.8l41-.91a3.72 3.72 0 0 1 -.05 3.39z" fill="#631c41" style="&#10;    fill: #711E38;&#10;"/><path d="m329 219.53h-173.33l-11.6 11.6v82.16l11.6 11.6h173.33l11.61-11.6v-82.16z" fill="#42437a"/><path d="m227.62 219.53h-72l-11.6 11.6v82.16l11.6 11.6h72l-9.91-11.6v-82.16z" fill="#565b8c"/><path d="m144.07 313.29h73.64l9.91 11.6h-71.95z" fill="#3e4378"/><path d="m232.6 313.29h108.01l-11.61 11.6h-101.38z" fill="#30305c"/><path d="m144.07 231.13h73.64v82.16h-73.64z" fill="#4c528c"/><path d="m227.62 219.53-9.91 11.6v82.16l9.91 11.6 4.98-11.6v-82.16z" fill="#545b9c"/><path d="m232.6 313.29h-14.89l9.91 11.6z" fill="#373769"/><path d="m227.62 219.53-9.91 11.6h-73.64l11.6-11.6z" fill="#5c63a8"/><path d="m217.71 231.13h14.89l-4.98-11.6z" fill="#6169b3"/><path d="m232.6 231.13h108.01l-11.61-11.6h-101.38z" fill="#474987"/><path d="m217.6 19.86c10.81 3.61 12 26.12 12 26.12h19.9l-8.5-29.36z" fill="#871e6b" style="&#10;    fill: #921F50;&#10;"/><path d="m229.41 4.5c-8 0-15.23 5.55-23.22 17.6-6.68 10.06-14.27 17.07-23.07 25.2-5.77 5.35-12.33 11.41-19.3 19-9.9 10.84-9 20.81-3.84 25.89a12.17 12.17 0 0 0 8.47 3.33h-13a12.9 12.9 0 0 1 -7.1-2.09c-8.16-5.39-11-11.91-7.81-22.61 3.6-12.11 24.73-27.18 36.58-37.75 9.88-8.77 11.88-15.96 19.25-23.8a15.18 15.18 0 0 1 11.08-4.77z" fill="url(#i)" fill-rule="evenodd" style="&#10;    fill: #DA397D;&#10;"/><path d="m168.45 95.56a12.09 12.09 0 0 1 -8.45-3.34c-5.22-5.07-6.06-15 3.84-25.88 7-7.63 13.53-13.69 19.31-19 8.79-8.13 16.38-15.15 23.06-25.2 8.69-13.14 16.49-18.56 25.32-17.51 11.29 1.33 19.47 14.58 23 37.3a1.67 1.67 0 0 1 -3.3.52c-3.23-21.11-10.42-33.37-20.09-34.51-7.4-.87-14.25 4.06-22.17 16-6.9 10.39-14.63 17.54-23.58 25.81-6 5.56-12.23 11.31-19.1 18.84-8.39 9.19-8 17.29-4 21.24 3.21 3.12 9.33 3.9 15.16-1.75 11.1-10.76 23.46-34.28 31.63-49.84 1.39-2.65 2.68-5.09 3.83-7.24 4.27-8 9.47-15.23 18.54-14.63 8.41.57 13.76 8.68 16.85 25.52a1.67 1.67 0 1 1 -3.28.6c-4.02-22.13-11.36-22.63-13.77-22.79-5.81-.39-10.25 3.3-15.38 12.88-1.15 2.14-2.43 4.57-3.82 7.21-8.27 15.75-20.77 39.56-32.26 50.68-3.7 3.59-7.72 5.09-11.34 5.09z" fill="#a62583" style="&#10;    fill: #C32A6B;&#10;"/><path d="m251.18 41.9c-3.35-20.78-10.45-32.83-20-34-7.45-.82-14.28 4.1-22.18 16.1-6.9 10.38-14.63 17.52-23.58 25.81-.24.23-.5.45-.74.69-5.12 7.86-14.23 21.82-18.7 28.48a23.83 23.83 0 0 1 -6.13 6.36 9.1 9.1 0 0 0 2.52 4.55c3.21 3.12 9.33 3.9 15.16-1.75 11.1-10.76 23.46-34.27 31.63-49.84 1.39-2.65 2.68-5.09 3.83-7.24 4.28-8 9.47-15.22 18.54-14.62 8.41.56 13.76 8.67 16.85 25.51h2.86z" fill="#871e6b" style="&#10;    fill: #972153;&#10;"/><path d="m231.14 7.94c-5.58-.65-10.83 2-16.48 8.43h14.75a15.54 15.54 0 0 1 2.05 0c8.41.56 13.76 8.67 16.85 25.51h2.86c-3.34-20.76-10.44-32.81-20.03-33.94z" fill="#541343"/><path d="m139.3 78.93c.09 6.19 3.2 10.66 9.07 14.54a12.9 12.9 0 0 0 7.1 2.09h13a12.17 12.17 0 0 1 -8.47-3.33c-3.08-3-4.61-7.71-3.33-13.3z" fill="#a62583" style="&#10;    fill: #C12E6C;&#10;"/><path d="m262.61 39.05a66.22 66.22 0 0 0 -40.55 0 3.78 3.78 0 0 0 -2.52 2.69l-2.26 9.14a1.77 1.77 0 0 0 1.72 2.19h46.68a1.77 1.77 0 0 0 1.72-2.19l-2.26-9.14a3.79 3.79 0 0 0 -2.53-2.69z" fill="#464c84"/><path d="m220.36 54.36 43.92 1.43.07-2.72h-43.99z" fill="#552031"/><path d="m229 37.23a136.26 136.26 0 0 0 -2.85 15.84h23.85c.38-7.85.69-13.29.9-16.63a66.12 66.12 0 0 0 -21.9.79z" fill="#363162"/><path d="m223.83 192.84 37 1a2 2 0 0 0 .11-2.79l-37.16-2v.09a3.65 3.65 0 0 0 -.05 3.3z" fill="#631c41" style="&#10;    fill: #711E38;&#10;"/><path d="m223.38 174.78 38-.95.25-.35a2.71 2.71 0 0 0 -.17-3.36l-38.12 1.46-.42.49a1.7 1.7 0 0 0 .1 2.33z" fill="#631c41" style="&#10;    fill: #711E38;&#10;"/><path d="m222.86 145.5 38.94.47.27-.35a1.76 1.76 0 0 0 0-2.17l-.19-.23-39.07-.44a1.82 1.82 0 0 0 -.22 2.31z" fill="#631c41" style="&#10;    fill: #711E38;&#10;"/><path d="m260.61 202.32-1.1-127.05-19.71 12.81v114.24z" fill="#240c67" fill-rule="evenodd" opacity=".5" style="&#10;    fill: #5C1A2E;&#10;"/><path d="m322.6 324.35-38.45-105.19h-14.78v-16.84h-24.64v17.21h6.02l3.84 11.6 1.48 93.22z" fill="#240c67" fill-rule="evenodd" opacity=".5"/><path d="m446.51 166.24s11.57 31.55 28.4 35.76c0 0-5.26-7.36-5.26-11.57 0 0 10.52 4.21 21 2.11 0 0-20.43-8.13-20.21-15.2z" fill="#731451" fill-rule="evenodd" opacity=".6"/><path d="m307.67 278.66-49.44-220.96 214.57.06 10.37 46.35.4 1.82 26.19 117.11 12.44 55.62z" fill="#253ccf"/><path d="m499.1 234.61-.05 5.87 1.1 5.7 3.21-2.26z" fill="#aabef7"/><path d="m258.23 57.7-4.63 1.45a28.2 28.2 0 0 0 -19.67 31.65l2.14 12.8 2.3 10.07 2.86 12.6 42.83 188.18 6.78-22 16.83-13.8-37.4-167.11z" fill="#1127b3"/><path d="m503.36 318.75-10.26-44.17-35.73 43.12z" fill="#253ccf"/><path d="m307.67 278.66-4.67 1.34a28.18 28.18 0 0 0 -19.66 31.64 17 17 0 0 0 .69 2.77 15.26 15.26 0 0 0 14.43 10h201.62l3.28-5.73-23.19-1.05 13.67-31.55h24.77l3.59-7.49z" fill="#09155e"/><path d="m308.72 286.15-10.35 31.55h194.24c-4-21 15.95-31.55 15.95-31.55z" fill="#d1af79"/><path d="m508.53 278.66h13.73l-12.5-55.62-10.66 11.57z" fill="#e7edff"/><path d="m522.26 278.66-3.18-12.5h-49.43l-2.53 10.19v2.31z" fill="#e7edff"/><path d="m493.71 246.24c-7.45 4.74-11.13 15.25-7.23 22.78s13.29 8.15 20.12 2.32c6.26-5.35 8.33-14.58 5-21s-11.06-8.45-17.89-4.1z" fill="#e7edff"/><path d="m308.72 286.15-9 27.34-.69 2.11 1.24 1h190.41s1.73-.06 1.66-.6c-2.71-19.94 16.22-29.9 16.22-29.9z" fill="#6d1194" fill-rule="evenodd" opacity=".29"/><path d="m467.12 278.66v-2.31h54.59l.55 2.31z" fill="#aabef7"/><path d="m269.23 106.87 1.04 4.68 13.21-9.47v-2.11z" fill="#aabef7"/><path d="m281.78 92.88s19.27.05 19.42-19.56l-20.2 16.22z" fill="#aabef7"/><path d="m300.87 70.38h6.8l7.13-10.85v-1.83l-13.6 3.51-6.15 5.11 3.28 4.06z" fill="#aabef7"/><path d="m466.49 87.35s-22.09 5.26-25.87-13.67l24.7 10.89z" fill="#aabef7"/><path d="m433.09 70.52h-5.52l-8.88-10.84v-1.92l14.06 3.59 10.6 5.12-1.05 4.05z" fill="#aabef7"/><path d="m482.27 99.97 1.3 5.96-18.13-8.06-2.1-10.52 5.26-1.05z" fill="#aabef7"/><path d="m458.57 57.76h14.23l10.37 46.35-15.63-7.29z" fill="#e7edff"/><path d="m472.8 57.76-3.68 10.42h-41.02l-9.41-10.42z" fill="#e7edff"/><path d="m443.81 62.26c6.06-5.36 17.59-5 24.88 1.62s6.52 15.82-.58 20.18c-6.52 4-16.46 2.51-22.7-3.06a15.87 15.87 0 0 1 -4.79-7.32 10.77 10.77 0 0 1 3.19-11.42z" fill="#e7edff"/><g clip-path="url(#f)"><path d="m383.9 223.41c-30.44-14.35-53.16-40.4-59.28-68l-4.4-19.83 4.9-.48c14.19-1.41 20.49-9.25 19.81-24.68l-.19-4.55h65.43l1.16 2.55c7.43 16.26 18.95 25.23 34.26 26.68l3 .28 4.67 18c7.33 28.23-3.23 55-27.55 69.8l-18.41 11.26z" fill="#c3d0f7"/><path d="m407.36 110.26c7.73 16.91 20.23 27.55 37.82 29.21l3.9 15c6.82 26.31-2.8 51.07-25.6 65l-16.44 10-21.28-10c-29.49-13.9-51-38.66-56.88-65l-3.33-15c16.79-1.66 24.5-11.88 23.75-29.21zm5.61-8.73h-72.8l.4 9.11c.29 6.54-.85 11.47-3.39 14.66s-6.57 4.9-12.49 5.48l-9.8 1 2.13 9.61 3.34 15c3.18 14.36 10.63 28.53 21.52 41a123.62 123.62 0 0 0 40.16 30l21.27 10 4.26 2 4-2.45 16.45-10c26-15.87 37.33-44.46 29.5-74.62l-3.9-15-1.54-5.93-6.09-.57c-13.64-1.29-24-9.41-30.7-24.15l-2.33-5.1z" fill="#8c61f6"/><path d="m408.64 236.71-28.4-129.37 30.28-.08 9.78 16.91 19.83 9.27 11.36 3.09 5.47 26.66v22.91l-11.21 20.02-22.45 22.35z" fill="#dbe1f2"/><path d="m407.36 110.26c7.73 16.91 20.23 27.55 37.82 29.21l3.9 15c6.82 26.31-2.8 51.07-25.6 65l-16.44 10-21.28-10c-29.49-13.9-51-38.66-56.88-65l-3.33-15c16.79-1.66 24.5-11.88 23.75-29.21zm5.61-8.73h-72.8l.4 9.11c.29 6.54-.85 11.47-3.39 14.66s-6.57 4.9-12.49 5.48l-9.8 1 2.13 9.61 3.34 15c3.18 14.36 10.63 28.53 21.52 41a123.62 123.62 0 0 0 40.16 30l21.27 10 4.26 2 4-2.45 16.45-10c26-15.87 37.33-44.46 29.5-74.62l-3.9-15-1.54-5.93-6.09-.57c-13.64-1.29-24-9.41-30.7-24.15l-2.33-5.1z" fill="#4470d8"/><path d="m368.51 176.68s5.73 6.23 16.39 6.58c0 0 1.21-1.87 2.21-3.48a21.68 21.68 0 0 1 -10.06-5.15 39.31 39.31 0 0 0 6.2 2.58 45.36 45.36 0 0 0 7.46 1.89 36.9 36.9 0 0 0 12.4 0 32.57 32.57 0 0 0 6.53-1.85 22.45 22.45 0 0 0 3.08-1.46c.12-.09.25-.13.37-.21s.12-.09.17-.09a11.74 11.74 0 0 0 1.12-.73c-.08.21-1.49 3.47-6.95 5 1.91 1.66 4.22 3.59 4.22 3.59 10.52-.27 12.77-6.51 12.77-6.51-3.93-13.8-13.94-24.93-13.94-24.93-8.14-4.6-14.56-4.49-14.56-4.49l-.33.51c8.88 2.14 13.71 5.39 14 5.59-.14-.06-1.3-.55-3.13-1.2a48.79 48.79 0 0 0 -11.55-2.73 4.67 4.67 0 0 0 -.82-.09 45.3 45.3 0 0 0 -9.63-.12 34.36 34.36 0 0 0 -13.19 4c.18-.19 3.11-3.25 10.36-5.33l-.85-.69a20.2 20.2 0 0 0 -12.09 4.4 45.92 45.92 0 0 0 -.18 24.92zm29.56-8.68a3.47 3.47 0 0 1 3.55-4.72 6.82 6.82 0 0 1 6.2 4.76 3.51 3.51 0 0 1 -3.55 4.74 6.8 6.8 0 0 1 -6.2-4.78zm-17.44-.06a3.52 3.52 0 0 1 3.58-4.72 6.78 6.78 0 0 1 6.17 4.76 3.53 3.53 0 0 1 -3.57 4.73 6.76 6.76 0 0 1 -6.18-4.77z" fill="#5a669a" style="&#10;    fill: #F7457D;&#10;"/></g><path d="m238.37 113.65s-3.59-30.41 25-33.09l2.25 11s-26.46 0-24.36 34.71z" fill="#09155e"/><path d="m275.06 274.58s-3.46-27.26 25.09-29.93l2.26 11s-26.3-1-24.19 33.66z" fill="#09155e"/><path d="m323.5 278.66h-15.83l-10.49-46.75 16.8 3.75z" fill="#e7edff"/><path d="m307.67 278.66-2.65-12.5h53.8l5.46 10.19v2.31z" fill="#e7edff"/><path d="m340.73 263.61c.53 8.4-6.67 15.05-16 15.05s-18.22-6.6-20.08-14.92c-2-9 4.87-16.89 15.55-17s19.96 7.8 20.53 16.87z" fill="#e7edff"/><path d="m307.67 278.66 2.67-2.31h53.94v2.31z" fill="#aabef7"/><path d="m273.39 57.7h-15.16l11.57 51.74 13.68-9.47z" fill="#e7edff"/><path d="m258.23 57.7 4.58 10.72 44.86-.02 7.13-10.7z" fill="#e7edff"/><path d="m272.89 88.87c8.35 4.49 20.55 1.44 25.95-7.45s1.11-18.69-8.09-21.65c-8.34-2.68-18.22 1.23-22.75 8.61s-2.67 16.41 4.89 20.49z" fill="#e7edff"/><path d="m298.37 317.7 204.94 1.05-8.42-5.26h-195.14z" fill="#253ccf"/><path d="m307.13 291.5v-.5l-5 15.25h190.63a25.07 25.07 0 0 1 1-3.25h-190.46l.35-1.06h190.5a31.84 31.84 0 0 1 7.32-10.42z" fill="none"/><path d="m301.78 307.28-2 6.21-1.25 3.81.75-.65s193.27.59 193.23.35a27.71 27.71 0 0 1 0-9.72z" fill="none"/><path d="m508.56 286.15h-199.84l-1.41 4.3h195.29a34.43 34.43 0 0 1 5.96-4.3z" fill="none"/><path d="m501.47 291.5c.38-.36.76-.72 1.13-1.05h-195.29l-.18.53v.52z" fill="#996432"/><path d="m303.3 303h190.44c.13-.36.27-.71.41-1.06h-190.5z" fill="#996432"/><path d="m301.78 307.28h190.75c.07-.35.15-.7.23-1h-190.63z" fill="#996432"/><path d="m508.56 286.15h-199.84l-3.7 11.27 200.39-9.17z" fill="#480c67" fill-rule="evenodd" opacity=".33"/><path d="m237.52 140.51 4.85 10.92a.25.25 0 0 0 .45 0l4.86-10.92a.27.27 0 0 1 .13-.13l10.92-4.85a.26.26 0 0 0 0-.46l-10.92-4.85a.27.27 0 0 1 -.13-.13l-4.86-10.92a.24.24 0 0 0 -.45 0l-4.85 10.92a.27.27 0 0 1 -.13.13l-10.92 4.85a.24.24 0 0 0 0 .45l10.92 4.86a.27.27 0 0 1 .13.13z" fill="#fff" style="&#10;    fill: #47F4A0;&#10;"/><path d="m191 119.83-3 7.74a.17.17 0 0 0 .22.22l7.74-3a.15.15 0 0 1 .13 0l7.74 3a.17.17 0 0 0 .22-.22l-3-7.74a.24.24 0 0 1 0-.12l3-7.74a.17.17 0 0 0 -.22-.22l-7.74 3a.15.15 0 0 1 -.13 0l-7.74-3a.17.17 0 0 0 -.22.22l3 7.74a.24.24 0 0 1 0 .12z" fill="#a4aeeb" style="&#10;    fill: #FF437E;&#10;"/><path d="m264.3 60.68 1.86 9.72 10.39-9.72z" fill="#aabef7" style="&#10;    fill: #F7457D;&#10;"/><path d="m470.46 60.68 2.04 10.21-14.29-10.21z" fill="#aabef7" style="&#10;    fill: #F7457D;&#10;"/><path d="m310.34 266.98 1.92 7.6h10.27z" fill="#aabef7" style="&#10;    fill: #F7457D;&#10;"/><path d="m509.25 274.58h9.58l-2.59-9.01" fill="#aabef7" style="&#10;    fill: #F7457D;&#10;"/><path d="m401.76 57.9s12.24 4.1 23.13 51.41l13.69-18.39-12.4-33z" fill="#253ccf"/><path d="m451.07 75a99.07 99.07 0 0 0 -5-15.72 16.37 16.37 0 0 0 -15.47-9.6l-18.34.58a34.85 34.85 0 0 0 -8 1.2 15.66 15.66 0 0 0 -8.61 6.15l-.12.18h.82l2.79-1.71 1.28-.6c6.28-2.94 13.88 2.17 18 20.54l13.27 69.4 16.31-8.19 17.35 7.14z" fill="url(#h)" fill-rule="evenodd" style="&#10;    fill: #C43762;&#10;"/><path d="m410.28 57.76c-1.29-1.33-7.83-7.27-14.72 0z" fill="#80165a" fill-rule="evenodd" style="&#10;    fill: #7B1A44;&#10;"/><path d="m144.01 295.6 74.11-19.28v-27.8l-74.11 20.26z" fill="#545b9c" opacity=".4"/></svg>
